<svg height="480pt" viewBox="0 0 480 480" width="480pt" xmlns="http://www.w3.org/2000/svg"><path d="m472.992188 192.0625-48.71875-6.085938c-3.878907-13.210937-9.175782-25.960937-15.792969-38.03125l30.167969-38.792968c2.480468-3.1875 2.199218-7.722656-.65625-10.578125l-56.566407-56.566407c-2.855469-2.851562-7.386719-3.132812-10.570312-.65625l-38.792969 30.167969c-12.070312-6.621093-24.824219-11.917969-38.039062-15.792969l-6.085938-48.71875c-.5-4.003906-3.902344-7.007812-7.9375-7.007812h-80c-4.035156 0-7.4375 3.003906-7.9375 7.007812l-6.085938 48.71875c-13.214843 3.875-25.96875 9.171876-38.039062 15.792969l-38.792969-30.167969c-3.183593-2.476562-7.714843-2.195312-10.570312.65625l-56.566407 56.566407c-2.855468 2.855469-3.136718 7.390625-.65625 10.578125l30.167969 38.792968c-6.617187 12.070313-11.914062 24.820313-15.792969 38.03125l-48.71875 6.085938c-4.003906.5-7.007812 3.902344-7.007812 7.9375v80c0 4.035156 3.003906 7.4375 7.007812 7.9375l48.71875 6.085938c3.878907 13.210937 9.175782 25.960937 15.792969 38.03125l-30.167969 38.792968c-2.480468 3.1875-2.199218 7.722656.65625 10.578125l56.566407 56.566407c2.855469 2.851562 7.386719 3.132812 10.570312.65625l38.792969-30.167969c12.070312 6.621093 24.824219 11.917969 38.039062 15.792969l6.085938 48.71875c.5 4.003906 3.902344 7.007812 7.9375 7.007812h80c4.035156 0 7.4375-3.003906 7.9375-7.007812l6.085938-48.71875c13.214843-3.875 25.96875-9.171876 38.039062-15.792969l38.792969 30.167969c3.183593 2.476562 7.714843 2.195312 10.570312-.65625l56.566407-56.566407c2.855468-2.855469 3.136718-7.390625.65625-10.578125l-30.167969-38.792968c6.617187-12.070313 11.914062-24.820313 15.792969-38.03125l48.71875-6.085938c4.003906-.5 7.007812-3.902344 7.007812-7.9375v-80c0-4.035156-3.003906-7.4375-7.007812-7.9375zm-8.992188 80.875-47 5.878906c-3.25.402344-5.921875 2.746094-6.753906 5.910156-4.050782 15.429688-10.1875 30.230469-18.246094 43.992188-1.652344 2.824219-1.421875 6.371094.585938 8.953125l29.109374 37.433594-46.574218 46.582031-37.433594-29.121094c-2.589844-2.007812-6.144531-2.230468-8.96875-.566406-13.761719 8.070312-28.566406 14.21875-44 18.273438-3.160156.832031-5.5 3.503906-5.902344 6.75l-5.878906 46.976562h-65.875l-5.878906-47c-.402344-3.246094-2.742188-5.917969-5.902344-6.753906-15.433594-4.046875-30.234375-10.183594-44-18.246094-2.824219-1.652344-6.371094-1.417969-8.953125.59375l-37.433594 29.117188-46.574219-46.605469 29.113282-37.433594c2-2.585937 2.226562-6.132813.566406-8.953125-8.0625-13.765625-14.207031-28.570312-18.265625-44-.828125-3.164062-3.503906-5.507812-6.75-5.910156l-46.984375-5.871094v-65.875l47-5.878906c3.25-.402344 5.921875-2.746094 6.753906-5.910156 4.050782-15.429688 10.1875-30.230469 18.246094-43.992188 1.652344-2.824219 1.421875-6.371094-.585938-8.953125l-29.09375-37.433594 46.574219-46.582031 37.433594 29.121094c2.585937 2 6.132813 2.226562 8.953125.566406 13.761719-8.070312 28.566406-14.21875 44-18.273438 3.160156-.832031 5.5-3.503906 5.902344-6.75l5.878906-46.976562h65.875l5.878906 47c.402344 3.246094 2.742188 5.917969 5.902344 6.753906 15.433594 4.046875 30.234375 10.183594 44 18.246094 2.824219 1.652344 6.371094 1.417969 8.953125-.59375l37.433594-29.117188 46.574219 46.582032-29.113282 37.433594c-2.011718 2.589843-2.234375 6.148437-.566406 8.976562 8.0625 13.765625 14.207031 28.570312 18.265625 44 .828125 3.164062 3.503906 5.507812 6.75 5.910156l46.984375 5.871094zm0 0"/><path d="m232 48h16v16h-16zm0 0"/><path d="m98.582031 109.886719 11.308594-11.316407 11.316406 11.3125-11.3125 11.3125zm0 0"/><path d="m48 232h16v16h-16zm0 0"/><path d="m98.585938 370.113281 11.3125-11.316406 11.316406 11.316406-11.316406 11.3125zm0 0"/><path d="m232 416h16v16h-16zm0 0"/><path d="m358.796875 370.105469 11.308594-11.316407 11.316406 11.3125-11.3125 11.316407zm0 0"/><path d="m416 232h16v16h-16zm0 0"/><path d="m358.792969 109.886719 11.3125-11.3125 11.3125 11.3125-11.3125 11.316406zm0 0"/><path d="m287.894531 112.679688-5.597656 14.96875c56.707031 21.09375 88.929687 81.011718 75.261719 139.953124-13.667969 58.9375-68.976563 98.558594-129.175782 92.542969-60.203124-6.019531-106.574218-55.808593-108.304687-116.285156-1.726563-60.480469 41.722656-112.835937 101.480469-122.285156l-8.222656 9.800781 12.265624 10.28125 20.566407-24.511719c2.839843-3.386719 2.402343-8.433593-.984375-11.273437l-24.511719-20.566406-10.289063 12.246093 9.617188 8.089844c-67.453125 10.277344-116.761719 69.078125-115.128906 137.292969 1.636718 68.210937 53.703125 124.585937 121.574218 131.621094 67.867188 7.035156 130.390626-37.457032 145.984376-103.886719 15.59375-66.425781-20.605469-134.089844-84.519532-157.988281zm0 0"/><path d="m224 248c4.417969 0 8-3.582031 8-8v-32c0-4.417969-3.582031-8-8-8h-32c-4.417969 0-8 3.582031-8 8v16h16v-8h16v16h-24c-4.417969 0-8 3.582031-8 8v32c0 4.417969 3.582031 8 8 8h40v-16h-32v-16zm0 0"/><path d="m248 200v40c0 4.417969 3.582031 8 8 8h24v32h16v-80h-16v32h-16v-32zm0 0"/></svg>