<svg height="480pt" viewBox="0 0 480 480" width="480pt" xmlns="http://www.w3.org/2000/svg"><path d="m472.992188 192.0625-48.71875-6.085938c-3.878907-13.210937-9.175782-25.964843-15.792969-38.039062l30.167969-38.792969c2.476562-3.183593 2.195312-7.714843-.65625-10.570312l-56.566407-56.566407c-2.855469-2.851562-7.386719-3.132812-10.570312-.65625l-38.792969 30.167969c-12.074219-6.617187-24.828125-11.914062-38.039062-15.792969l-6.085938-48.71875c-.5-4.003906-3.902344-7.007812-7.9375-7.007812h-80c-4.035156 0-7.4375 3.003906-7.9375 7.007812l-6.085938 48.71875c-13.210937 3.878907-25.964843 9.175782-38.039062 15.792969l-38.792969-30.167969c-3.183593-2.476562-7.714843-2.195312-10.570312.65625l-56.566407 56.566407c-2.851562 2.855469-3.132812 7.386719-.65625 10.570312l30.167969 38.792969c-6.617187 12.074219-11.914062 24.828125-15.792969 38.039062l-48.71875 6.085938c-4.003906.5-7.007812 3.902344-7.007812 7.9375v80c0 4.035156 3.003906 7.4375 7.007812 7.9375l48.71875 6.085938c3.878907 13.210937 9.175782 25.964843 15.792969 38.039062l-30.167969 38.792969c-2.476562 3.183593-2.195312 7.714843.65625 10.570312l56.566407 56.566407c2.855469 2.851562 7.386719 3.132812 10.570312.65625l38.792969-30.167969c12.074219 6.617187 24.828125 11.914062 38.039062 15.792969l6.085938 48.71875c.5 4.003906 3.902344 7.007812 7.9375 7.007812h80c4.035156 0 7.4375-3.003906 7.9375-7.007812l6.085938-48.71875c13.210937-3.878907 25.964843-9.175782 38.039062-15.792969l38.792969 30.167969c3.183593 2.476562 7.714843 2.195312 10.570312-.65625l56.566407-56.566407c2.851562-2.855469 3.132812-7.386719.65625-10.570312l-30.167969-38.792969c6.617187-12.074219 11.914062-24.828125 15.792969-38.039062l48.71875-6.085938c4.003906-.5 7.007812-3.902344 7.007812-7.9375v-80c0-4.035156-3.003906-7.4375-7.007812-7.9375zm-8.992188 80.875-47 5.878906c-3.246094.402344-5.917969 2.742188-6.753906 5.902344-4.046875 15.429688-10.1875 30.234375-18.246094 44-1.652344 2.824219-1.421875 6.371094.585938 8.953125l29.109374 37.433594-46.589843 46.574219-37.433594-29.113282c-2.585937-2-6.132813-2.226562-8.953125-.566406-13.765625 8.0625-28.570312 14.207031-44 18.265625-3.160156.832031-5.5 3.503906-5.902344 6.75l-5.878906 46.984375h-65.875l-5.878906-47c-.402344-3.246094-2.742188-5.917969-5.902344-6.753906-15.429688-4.050782-30.234375-10.1875-44-18.246094-2.824219-1.652344-6.371094-1.421875-8.953125.585938l-37.433594 29.09375-46.574219-46.574219 29.113282-37.433594c2-2.585937 2.226562-6.132813.566406-8.953125-8.066406-13.765625-14.210938-28.566406-18.265625-44-.832031-3.160156-3.503906-5.5-6.75-5.902344l-46.984375-5.878906v-65.875l47-5.878906c3.246094-.402344 5.917969-2.742188 6.753906-5.902344 4.050782-15.429688 10.1875-30.234375 18.246094-44 1.652344-2.824219 1.421875-6.371094-.585938-8.953125l-29.09375-37.433594 46.574219-46.574219 37.433594 29.113282c2.585937 2 6.132813 2.226562 8.953125.566406 13.765625-8.0625 28.570312-14.207031 44-18.265625 3.160156-.832031 5.5-3.503906 5.902344-6.75l5.878906-46.984375h65.875l5.878906 47c.402344 3.246094 2.742188 5.917969 5.902344 6.753906 15.429688 4.050782 30.234375 10.1875 44 18.246094 2.824219 1.652344 6.371094 1.421875 8.953125-.585938l37.433594-29.09375 46.574219 46.574219-29.113282 37.433594c-2 2.585937-2.226562 6.132813-.566406 8.953125 8.0625 13.765625 14.207031 28.570312 18.265625 44 .832031 3.160156 3.503906 5.5 6.75 5.902344l46.984375 5.878906zm0 0"/><path d="m232 48h16v16h-16zm0 0"/><path d="m98.582031 109.890625 11.3125-11.3125 11.3125 11.3125-11.3125 11.3125zm0 0"/><path d="m48 232h16v16h-16zm0 0"/><path d="m98.582031 370.109375 11.3125-11.3125 11.3125 11.3125-11.3125 11.316406zm0 0"/><path d="m232 416h16v16h-16zm0 0"/><path d="m358.796875 370.097656 11.3125-11.3125 11.316406 11.3125-11.316406 11.3125zm0 0"/><path d="m416 232h16v16h-16zm0 0"/><path d="m358.796875 109.902344 11.3125-11.316406 11.316406 11.316406-11.316406 11.3125zm0 0"/><path d="m240 96c-79.527344 0-144 64.472656-144 144s64.472656 144 144 144 144-64.472656 144-144c-.09375-79.492188-64.507812-143.90625-144-144zm0 272c-70.691406 0-128-57.308594-128-128s57.308594-128 128-128 128 57.308594 128 128c-.082031 70.65625-57.34375 127.917969-128 128zm0 0"/><path d="m248 217.472656v-57.472656h-16v57.472656c-6.777344 2.417969-12.109375 7.75-14.527344 14.527344h-41.472656v16h41.472656c3.699219 10.53125 14.1875 17.109375 25.28125 15.855469 11.09375-1.257813 19.84375-10.007813 21.101563-21.101563 1.253906-11.09375-5.324219-21.582031-15.855469-25.28125zm-8 30.527344c-4.417969 0-8-3.582031-8-8s3.582031-8 8-8 8 3.582031 8 8-3.582031 8-8 8zm0 0"/><path d="m128 232h16v16h-16zm0 0"/><path d="m232 336h16v16h-16zm0 0"/><path d="m336 232h16v16h-16zm0 0"/><path d="m232 128h16v16h-16zm0 0"/></svg>